<?xml version="1.0" encoding="utf-8"?>
<!-- Generator: Adobe Illustrator 16.0.0, SVG Export Plug-In . SVG Version: 6.00 Build 0)  -->
<!DOCTYPE svg PUBLIC "-//W3C//DTD SVG 1.1//EN" "http://www.w3.org/Graphics/SVG/1.1/DTD/svg11.dtd">
<svg version="1.1" id="Layer_1" xmlns="http://www.w3.org/2000/svg" xmlns:xlink="http://www.w3.org/1999/xlink" x="0px" y="0px"
	 width="93.333px" height="94.667px" viewBox="0 0 93.333 94.667" enable-background="new 0 0 93.333 94.667" xml:space="preserve">
<g>
	<g>
		<g id="Layer_1_33_">
			<g>
				<path fill="#F68B21" d="M28.388,59.834h-8.337c-1.535,0-2.777,1.22-2.777,2.725V74.83c0,1.506,1.244,2.725,2.777,2.725h8.335
					c1.535,0,2.779-1.221,2.779-2.725V62.559C31.167,61.054,29.921,59.834,28.388,59.834z"/>
				<path fill="#F68B21" d="M49.929,50.285h-8.334c-1.535,0-2.778,1.224-2.778,2.729v21.817c0,1.506,1.244,2.725,2.778,2.725h8.334
					c1.535,0,2.779-1.221,2.779-2.725V53.017C52.708,51.509,51.464,50.285,49.929,50.285z"/>
				<path fill="#F68B21" d="M71.476,39.378h-8.334c-1.535,0-2.779,1.224-2.779,2.728V74.83c0,1.506,1.244,2.725,2.779,2.725h8.334
					c1.535,0,2.781-1.221,2.781-2.725V42.105C74.253,40.6,73.011,39.378,71.476,39.378z"/>
				<ellipse fill="#F68B21" cx="67.308" cy="19.506" rx="1.979" ry="1.942"/>
				<path fill="#F68B21" d="M75.167,18.877c-0.367-0.484-1.066-0.583-1.559-0.221l-4.533,3.332h-0.717
					c-0.305,0-0.57,0.132-0.773,0.327l0.52,3.738l-0.797,0.664l-0.797-0.664l0.521-3.738c-0.203-0.195-0.467-0.327-0.773-0.327
					h-0.717l-4.531-3.331c-0.492-0.362-1.191-0.265-1.561,0.221c-0.37,0.485-0.27,1.167,0.223,1.53l4.836,3.55
					c0.184,0.138,0.404,0.213,0.637,0.217v4.935l-2.059,7.067c-0.168,0.581,0.176,1.187,0.768,1.354
					c0.101,0.028,0.203,0.042,0.306,0.042c0.485,0,0.932-0.314,1.069-0.796l2.078-7.138l2.078,7.138
					c0.141,0.48,0.588,0.796,1.072,0.796c0.102,0,0.205-0.014,0.307-0.042c0.592-0.167,0.935-0.771,0.764-1.354l-2.057-7.067v-4.934
					c0.232-0.006,0.457-0.081,0.641-0.219l4.832-3.55C75.437,20.045,75.542,19.362,75.167,18.877z"/>
			</g>
		</g>
	</g>
	<rect x="66.042" y="22.162" fill="#F68B21" width="2.533" height="4.576"/>
</g>
</svg>
