<?xml version="1.0" encoding="utf-8"?>
<!-- Generator: Adobe Illustrator 16.0.0, SVG Export Plug-In . SVG Version: 6.00 Build 0)  -->
<!DOCTYPE svg PUBLIC "-//W3C//DTD SVG 1.1//EN" "http://www.w3.org/Graphics/SVG/1.1/DTD/svg11.dtd">
<svg version="1.1" id="Layer_1" xmlns="http://www.w3.org/2000/svg" xmlns:xlink="http://www.w3.org/1999/xlink" x="0px" y="0px"
	 width="72px" height="72px" viewBox="0 0 72 72" enable-background="new 0 0 72 72" xml:space="preserve">
<g>
	<g>
		<g>
			<path fill="#F68B1F" d="M54.262,48.137c-0.441-1.057-1.504-1.732-2.518-2.147l-6.854-3.155l-3.293-2.778l-5.292,5.263h-0.005
				l2.285,15.264c0.007,0.054-0.006,0.106-0.037,0.148l-2.386,3.268c-0.039,0.053-0.099,0.083-0.164,0.083
				c-0.064,0-0.124-0.03-0.162-0.083L33.45,60.73c-0.032-0.042-0.045-0.097-0.038-0.148l2.283-15.264h-0.002l-5.292-5.263
				l-3.291,2.778l-6.854,3.155c-1.015,0.415-2.011,1.048-2.518,2.147c0,0-7.449,17.736-3.409,17.736h43.342
				C61.712,65.873,54.262,48.137,54.262,48.137z"/>
			<path fill="#F68B1F" d="M54.737,23.819c0.104-0.011,0.195-0.061,0.259-0.141c0.064-0.079,0.095-0.183,0.084-0.285
				c-0.077-0.654-0.154-1.309-0.231-1.964l-0.158-1.37c-0.026-0.206-0.207-0.353-0.415-0.336H53.98l0.005-4.601l0.154-0.057
				l0.519-0.186c0.438-0.159,0.729-0.575,0.729-1.04c0-0.466-0.291-0.88-0.729-1.04L36.375,6.193c-0.242-0.088-0.509-0.088-0.75,0
				L17.34,12.801c-0.439,0.16-0.729,0.574-0.729,1.04c0,0.465,0.29,0.881,0.729,1.04l6.759,2.442
				c-0.478,1.506-0.694,3.229-0.675,5.15c0.118,10.951,6.478,17.482,12.359,17.482c5.814,0,12.24-6.531,12.359-17.482
				c0.019-1.861-0.188-3.537-0.633-5.01l4.914-1.776l0.012,4.039h-0.297c-0.206-0.018-0.39,0.129-0.414,0.335l-0.384,3.337
				c-0.013,0.102,0.018,0.202,0.083,0.282c0.064,0.079,0.157,0.131,0.259,0.14 M35.784,37.298c-5.132,0-8.674-6.014-9.389-12.024
				c-0.659-5.557,7.378-5.817,7.846-2.373c0.144,1.062-1.073,2.196-0.935,2.632c0.681,2.161,11.944-7.047,11.867-0.261
				C45.117,30.063,40.675,37.298,35.784,37.298z"/>
		</g>
	</g>
	<rect x="33.201" y="45.225" fill="#F68B1F" width="6.833" height="19.583"/>
</g>
</svg>
