<?xml version="1.0" encoding="utf-8"?>
<!-- Generator: Adobe Illustrator 16.0.0, SVG Export Plug-In . SVG Version: 6.00 Build 0)  -->
<!DOCTYPE svg PUBLIC "-//W3C//DTD SVG 1.1//EN" "http://www.w3.org/Graphics/SVG/1.1/DTD/svg11.dtd">
<svg version="1.1" id="Layer_1" xmlns="http://www.w3.org/2000/svg" xmlns:xlink="http://www.w3.org/1999/xlink" x="0px" y="0px"
	 width="72px" height="72px" viewBox="0 0 72 72" enable-background="new 0 0 72 72" xml:space="preserve">
<g>
	<g>
		<path fill="#F68B1F" d="M26.405,20.925c0-0.213,0.064-0.417,0.184-0.616c-0.006,0.009-0.012,0.015-0.018,0.021V15.09l10.094,6.134
			l10.295-6.135v4.855c0.103,0.585,0.164,0.781,0.164,0.979c0,1.853-4.637,3.354-10.358,3.354
			C31.047,24.279,26.405,22.776,26.405,20.925z M52.604,10.484L36.792,5.5l-15.87,5.058l15.817,9.584L52.604,10.484z M26.401,29.689
			c0,5.562,4.637,10.065,10.37,10.065c5.717,0,10.365-4.501,10.365-10.065v-5.41c0,0-3.521,2.546-10.359,2.546
			c-6.84,0-10.375-2.515-10.375-2.515V29.689z M60.429,52.213V66.5H51.75V53.996l-2.805-0.01V66.5H22.95l0.025-12.393h-2.728V66.5
			h-8.674V52.213c0,0-0.52-10.832,14.225-11.109h7.998l2.812,4.607l2.82-4.607h6.979C46.407,41.104,59.481,40.949,60.429,52.213z
			 M39.103,50.564l-2.438-4.117l-2.443,4.021l2.613,12.07L39.103,50.564z M21.92,22.017l-0.885-10.61l-0.942,10.61l0.942,3.037
			L21.92,22.017z"/>
	</g>
	<rect x="30.375" y="46.475" fill="#F68B1F" width="11.25" height="17.5"/>
</g>
</svg>
