<?xml version="1.0" encoding="utf-8"?>
<!-- Generator: Adobe Illustrator 16.0.0, SVG Export Plug-In . SVG Version: 6.00 Build 0)  -->
<!DOCTYPE svg PUBLIC "-//W3C//DTD SVG 1.1//EN" "http://www.w3.org/Graphics/SVG/1.1/DTD/svg11.dtd">
<svg version="1.1" id="Layer_1" xmlns="http://www.w3.org/2000/svg" xmlns:xlink="http://www.w3.org/1999/xlink" x="0px" y="0px"
	 width="72px" height="72px" viewBox="0 0 72 72" enable-background="new 0 0 72 72" xml:space="preserve">
<g>
	<g>
		<g>
			<path fill="#F68B1F" d="M63.645,50.946c-0.566-1.127-1.314-1.314-2.445-1.691c-4.889-1.881-9.215-2.818-14.104-4.514
				c-0.375-0.188-1.693-0.939-1.693-3.385c0-0.938-0.189-1.502-1.316-1.502c-0.373,0-0.188,0-0.373-0.752
				c-0.377-2.256-0.191-3.387-0.191-3.762c0-0.377,0.377-0.564,0.564-0.752c1.693-2.256,2.07-5.076,2.07-6.582
				c0,0,0.375,0.189,0.564-0.752c0.375-0.939,0.375-1.314,0.752-2.443c0.375-0.941,0.375-2.82-0.752-2.82
				c-0.752,0.188-0.564,0-0.564-0.752v-6.393c-0.189-2.258-1.506-3.574-2.635-4.326c-1.504-0.941-2.068-1.316-2.818-1.881
				c-0.752-0.564-0.564-1.127,0-1.879c0.375-0.377,0.939-0.754,1.129-0.941c0,0-0.189,0-0.377,0c-0.375,0-3.947,0.564-5.263,0.941
				c-2.819,0.752-5.454,1.504-7.711,3.385c-1.505,1.129-2.819,2.818-2.819,4.701c0,0.939,0,4.514,0,6.393
				c0,0.564,0,0.939-0.753,0.752c-1.316-0.189-0.563,2.445-0.563,2.633c0.188,0.941,0.563,1.693,0.939,2.82
				c0.188,0.752,0.564,0.752,0.564,0.752c0.375,1.693,0.939,4.703,2.444,6.582c0.188,0.189,0.375,0.564,0.375,0.941
				c-0.188,1.129-0.188,2.633-0.375,3.758c0,0.191-0.19,0.754-0.564,0.754c-0.94,0-1.316,0.752-1.13,1.506
				c0,1.691-1.128,3.008-1.691,3.381C22.462,46.249,14,48.692,11.179,49.63c-1.881,0.566-2.443,1.131-2.82,1.883L5.915,57.72
				c10.72,0,16.172,6.58,27.265,8.461c0,0,0,0,0.19,0l-3.009-5.264l5.826-16.172l-1.879-3.949h3.76l-1.881,3.949l5.829,16.172
				l-3.572,4.889c0.189,0,0.377,0,0.377,0c11.469-1.881,19.367-8.461,27.266-8.461L63.645,50.946z M56.686,54.144h-8.65V52.64h8.652
				v1.504H56.686z"/>
		</g>
	</g>
</g>
</svg>
