<?xml version="1.0" encoding="utf-8"?>
<!-- Generator: Adobe Illustrator 16.0.0, SVG Export Plug-In . SVG Version: 6.00 Build 0)  -->
<!DOCTYPE svg PUBLIC "-//W3C//DTD SVG 1.1//EN" "http://www.w3.org/Graphics/SVG/1.1/DTD/svg11.dtd">
<svg version="1.1" id="Layer_1" xmlns="http://www.w3.org/2000/svg" xmlns:xlink="http://www.w3.org/1999/xlink" x="0px" y="0px"
	 width="72px" height="72px" viewBox="0 0 72 72" enable-background="new 0 0 72 72" xml:space="preserve">
<g>
	<g>
		<g id="Layer_1_33_">
			<g>
				<path fill="#F68B1F" d="M18.055,48.505H9.718c-1.535,0-2.777,1.242-2.777,2.775v12.504c0,1.535,1.244,2.777,2.777,2.777h8.335
					c1.535,0,2.779-1.244,2.779-2.777V51.28C20.833,49.747,19.588,48.505,18.055,48.505z"/>
				<path fill="#F68B1F" d="M39.596,38.776h-8.334c-1.535,0-2.778,1.246-2.778,2.781v22.229c0,1.535,1.244,2.777,2.778,2.777h8.334
					c1.535,0,2.779-1.244,2.779-2.777V41.558C42.375,40.022,41.131,38.776,39.596,38.776z"/>
				<path fill="#F68B1F" d="M61.143,27.663h-8.334c-1.535,0-2.779,1.246-2.779,2.779v33.342c0,1.535,1.244,2.777,2.779,2.777h8.334
					c1.535,0,2.781-1.244,2.781-2.777V30.442C63.92,28.907,62.678,27.663,61.143,27.663z"/>
				<circle fill="#F68B1F" cx="56.975" cy="7.415" r="1.979"/>
				<path fill="#F68B1F" d="M64.834,6.774c-0.367-0.494-1.066-0.594-1.559-0.225l-4.533,3.395h-0.717
					c-0.305,0-0.57,0.135-0.773,0.334l0.52,3.809l-0.797,0.676l-0.797-0.676l0.521-3.809c-0.203-0.199-0.467-0.334-0.773-0.334
					h-0.717L50.678,6.55c-0.492-0.369-1.191-0.27-1.561,0.225s-0.27,1.189,0.223,1.559l4.836,3.617
					c0.184,0.141,0.404,0.217,0.637,0.221V17.2l-2.059,7.201c-0.168,0.592,0.176,1.209,0.768,1.379
					c0.1,0.029,0.203,0.043,0.305,0.043c0.486,0,0.932-0.32,1.07-0.811l2.078-7.273l2.078,7.273c0.141,0.49,0.588,0.811,1.072,0.811
					c0.102,0,0.205-0.014,0.307-0.043c0.592-0.17,0.934-0.785,0.764-1.379L59.139,17.2v-5.027c0.232-0.006,0.457-0.082,0.641-0.223
					l4.832-3.617C65.104,7.964,65.208,7.269,64.834,6.774z"/>
			</g>
		</g>
	</g>
	<rect x="55.709" y="10.121" fill="#F68B1F" width="2.533" height="4.663"/>
</g>
</svg>
